<?xml version="1.0" standalone="no"?><!DOCTYPE svg PUBLIC "-//W3C//DTD SVG 1.1//EN" "http://www.w3.org/Graphics/SVG/1.1/DTD/svg11.dtd"><svg height="1024" node-id="1" sillyvg="true" template-height="1024" template-width="1630" version="1.1" viewBox="0 0 1630 1024" width="1630" xmlns="http://www.w3.org/2000/svg" xmlns:xlink="http://www.w3.org/1999/xlink"><defs node-id="21"></defs><g node-id="23"><path d="M 971.10 994.70 L 985.20 994.50 L 999.10 993.80 L 1012.90 992.60 L 1026.50 991.00 L 1040.00 989.00 L 1053.40 986.50 L 1069.40 982.90 L 1085.10 978.70 L 1100.60 973.90 L 1115.80 968.50 L 1130.80 962.60 L 1145.70 956.00 L 1160.20 949.00 L 1174.40 941.40 L 1188.40 933.20 L 1202.20 924.50 L 1215.60 915.30 L 1228.70 905.70 L 1241.40 895.50 L 1253.90 884.90 L 1266.10 873.80 L 1277.80 862.20 L 1289.20 850.30 L 1300.30 837.90 L 1311.00 825.10 L 1321.30 811.80 L 1331.10 798.20 L 1340.60 784.20 L 1349.60 769.90 L 1358.20 755.10 L 1366.50 740.00 L 1374.20 724.60 L 1381.40 708.90 L 1388.20 692.90 L 1394.50 676.50 L 1400.30 659.80 L 1405.60 643.00 L 1410.40 625.90 L 1414.70 608.50 L 1418.40 590.80 L 1421.60 572.80 L 1424.20 554.80 L 1426.30 536.60 L 1427.80 518.10 L 1428.70 499.30 L 1429.00 480.30 L 1428.70 465.80 L 1428.10 452.20 L 1427.00 439.70 L 1425.60 428.00 L 1423.80 417.10 L 1421.40 405.80 L 1418.70 395.30 L 1415.70 385.60 L 1412.40 376.70 L 1408.80 368.40 L 1404.60 360.00 L 1400.10 352.30 L 1395.30 345.10 L 1390.20 338.50 L 1384.90 332.40 L 1379.10 326.60 L 1373.00 321.20 L 1366.70 316.20 L 1360.00 311.70 L 1353.00 307.50 L 1345.90 303.80 L 1338.40 300.30 L 1330.60 297.20 L 1322.50 294.40 L 1314.10 292.00 L 1303.50 289.40 L 1292.50 287.20 L 1281.00 285.40 L 1268.90 284.00 L 1252.90 282.80 L 1236.10 282.10 L 1218.50 282.00 L 1200.90 282.40 L 1163.80 284.20 L 1135.20 286.40 L 1013.80 296.90 L 982.40 299.00 L 940.30 300.60 L 919.20 300.90 L 857.40 299.90 L 754.60 296.70 L 681.90 295.10 L 620.30 294.90 L 571.40 296.10 L 547.00 297.20 L 523.00 298.70 L 499.50 300.70 L 464.50 304.70 L 431.20 309.80 L 414.60 313.00 L 398.60 316.50 L 383.20 320.30 L 368.30 324.50 L 353.40 329.30 L 339.20 334.50 L 325.60 340.00 L 312.70 346.00 L 302.40 351.30 L 292.70 356.80 L 283.40 362.70 L 274.60 368.80 L 266.20 375.30 L 258.10 382.20 L 250.50 389.50 L 243.40 397.10 L 236.80 405.20 L 230.70 413.50 L 226.00 420.80 L 221.70 428.30 L 217.70 436.20 L 214.10 444.40 L 210.90 453.00 L 208.00 461.90 L 205.70 470.70 L 203.70 480.00 L 202.20 489.60 L 201.00 499.80 L 200.30 510.40 L 200.00 521.50 L 200.30 532.40 L 201.10 543.20 L 202.30 553.90 L 204.00 564.50 L 206.20 575.00 L 208.90 585.30 L 212.70 597.60 L 217.10 609.70 L 222.10 621.80 L 227.70 633.70 L 234.00 645.50 L 240.70 657.00 L 248.00 668.40 L 255.80 679.60 L 264.20 690.80 L 273.20 701.90 L 282.40 712.50 L 292.20 723.00 L 302.40 733.50 L 313.10 743.80 L 324.40 754.00 L 338.70 766.30 L 353.60 778.30 L 369.20 790.20 L 385.40 801.80 L 401.80 813.00 L 418.80 823.90 L 436.20 834.50 L 454.10 844.90 L 472.20 854.90 L 490.60 864.60 L 509.40 874.00 L 547.60 891.90 L 586.50 908.40 L 606.10 916.20 L 632.50 926.00 L 658.80 935.20 L 685.10 943.80 L 711.50 951.80 L 737.60 959.10 L 763.20 965.70 L 789.00 971.80 L 814.10 977.10 L 838.40 981.70 L 856.80 984.70 L 891.80 989.60 L 925.30 992.90 L 941.30 993.90 L 971.10 994.70 Z" fill="#eff0f9" fill-rule="evenodd" group-id="1" id="椭圆形备份" node-id="6" stroke="none" target-height="712.7" target-width="1229" target-x="200" target-y="282"></path><path d="M 598.60 192.70 L 1135.80 233.50 L 1140.00 234.10 L 1143.90 235.20 L 1147.60 236.70 L 1151.10 238.70 L 1154.20 241.10 L 1157.10 243.80 L 1159.60 246.90 L 1161.70 250.20 L 1163.40 253.80 L 1164.70 257.60 L 1165.50 261.60 L 1165.70 265.80 L 1165.70 838.20 L 1165.50 844.40 L 1164.90 850.50 L 1163.90 856.40 L 1162.50 862.10 L 1160.70 867.80 L 1156.20 878.60 L 1153.40 883.70 L 1146.90 893.30 L 1143.30 897.70 L 1135.10 905.90 L 1126.00 912.90 L 1121.10 916.00 L 1110.70 921.20 L 1105.20 923.30 L 1093.80 926.50 L 1087.90 927.50 L 1081.80 928.10 L 1075.60 928.30 L 1070.30 928.20 L 1059.70 926.90 L 568.80 839.40 L 598.60 192.70 Z" fill="#ffffff" fill-rule="evenodd" group-id="1" id="矩形备份-2" node-id="7" stroke="#555555" stroke-linecap="butt" stroke-width="7.3142858" target-height="735.6" target-width="596.89996" target-x="568.8" target-y="192.7"></path><g node-id="24"><path d="M 693.10 881.60 L 1028.30 897.60 L 1035.00 897.70 L 1041.60 897.30 L 1048.00 896.60 L 1054.30 895.50 L 1060.50 894.00 L 1068.00 891.50 L 1075.30 888.50 L 1082.20 885.00 L 1088.80 880.90 L 1095.20 876.40 L 1101.10 871.40 L 1106.60 866.00 L 1111.70 860.10 L 1116.40 853.90 L 1120.60 847.30 L 1124.20 840.40 L 1127.40 833.10 L 1129.50 827.10 L 1131.20 821.00 L 1132.60 814.70 L 1133.50 808.20 L 1134.10 801.50 L 1134.10 794.00 L 1133.70 786.60 L 1079.60 245.10 L 703.70 266.10 L 693.10 881.60 Z" fill="#f2f2f2" fill-opacity="0.67578125" fill-rule="evenodd" group-id="1,2" id="矩形备份-22" node-id="8" stroke="none" target-height="652.6" target-width="441" target-x="693.1" target-y="245.1"></path></g><path d="M 1076.00 728.40 L 1076.00 742.90 L 1075.70 750.70 L 1074.80 758.20 L 1073.30 765.50 L 1071.20 772.60 L 1068.60 779.50 L 1065.50 786.10 L 1062.00 792.30 L 1057.90 798.30 L 1053.40 804.00 L 1048.50 809.30 L 1043.30 814.10 L 1037.60 818.60 L 1031.60 822.70 L 1025.30 826.30 L 1018.80 829.30 L 1011.80 832.00 L 1004.80 834.00 L 997.50 835.50 L 990.00 836.40 L 982.20 836.70 L 976.70 836.60 L 965.70 835.30 L 471.60 747.20 L 484.90 171.40 L 485.90 161.80 L 488.30 152.90 L 490.70 147.30 L 493.60 142.00 L 497.00 137.10 L 500.90 132.50 L 505.20 128.40 L 509.90 124.70 L 515.00 121.50 L 520.40 118.90 L 526.20 116.80 L 530.60 115.60 L 539.90 114.30 L 545.80 114.20 L 1058.00 135.50 L 1061.90 135.90 L 1065.50 136.80 L 1069.00 138.10 L 1072.30 139.90 L 1075.20 142.00 L 1077.90 144.50 L 1080.30 147.30 L 1082.30 150.40 L 1083.90 153.70 L 1085.00 157.20 L 1085.80 161.00 L 1086.00 164.90 L 1084.20 483.40" fill="#ffffff" fill-rule="evenodd" group-id="1" id="矩形" node-id="9" stroke="#555555" stroke-linecap="butt" stroke-width="7.3142858" target-height="722.5" target-width="614.4" target-x="471.6" target-y="114.2"></path><g node-id="25"><path d="M 619.70 231.00 L 979.20 250.30 L 978.60 255.80 L 977.60 261.10 L 976.00 266.20 L 974.00 271.00 L 971.50 275.60 L 968.70 279.90 L 965.40 283.80 L 961.80 287.50 L 957.90 290.80 L 953.70 293.60 L 949.20 296.10 L 944.50 298.10 L 939.60 299.70 L 934.50 300.70 L 929.20 301.20 L 923.70 301.20 L 564.00 282.00 L 564.50 276.60 L 565.60 271.50 L 567.10 266.50 L 569.10 261.60 L 571.50 256.90 L 574.40 252.60 L 577.70 248.50 L 581.50 244.70 L 585.60 241.30 L 589.90 238.40 L 594.40 236.00 L 599.20 234.00 L 604.20 232.50 L 609.20 231.50 L 614.40 231.00 L 619.70 231.00 Z" fill="#ffffff" fill-rule="nonzero" group-id="1,3" id="路径" node-id="10" stroke="#555555" stroke-linecap="butt" stroke-width="7.3142858" target-height="70.20001" target-width="415.2" target-x="564" target-y="231"></path></g><g node-id="26"><path d="M 612.50 370.20 L 972.00 389.50 L 971.50 395.00 L 970.40 400.30 L 968.90 405.40 L 966.80 410.20 L 964.30 414.80 L 961.50 419.10 L 958.30 423.00 L 954.60 426.70 L 950.70 430.00 L 946.50 432.80 L 942.00 435.30 L 937.30 437.30 L 932.40 438.90 L 927.30 439.90 L 922.00 440.40 L 916.50 440.40 L 556.80 421.20 L 557.40 415.80 L 558.40 410.70 L 559.90 405.70 L 561.90 400.80 L 564.40 396.10 L 567.20 391.80 L 570.50 387.70 L 574.30 383.90 L 578.40 380.50 L 582.70 377.60 L 587.20 375.20 L 592.00 373.20 L 597.00 371.70 L 602.00 370.70 L 607.20 370.20 L 612.50 370.20 Z" fill="#eff0f9" fill-rule="nonzero" group-id="1,4" id="路径备份-2" node-id="11" stroke="none" target-height="70.19998" target-width="415.2" target-x="556.8" target-y="370.2"></path></g><g node-id="27"><path d="M 598.10 491.10 L 957.70 510.30 L 957.10 515.90 L 956.00 521.20 L 954.50 526.20 L 952.50 531.10 L 950.00 535.70 L 947.10 540.00 L 943.90 543.90 L 940.30 547.60 L 936.30 550.80 L 932.10 553.70 L 927.70 556.20 L 922.90 558.20 L 918.00 559.70 L 912.90 560.80 L 907.70 561.30 L 902.20 561.30 L 542.50 542.10 L 543.00 536.70 L 544.00 531.60 L 545.50 526.60 L 547.50 521.70 L 550.00 517.00 L 552.90 512.70 L 556.20 508.60 L 559.90 504.80 L 564.00 501.40 L 568.30 498.50 L 572.90 496.10 L 577.70 494.10 L 582.60 492.60 L 587.70 491.60 L 592.80 491.10 L 598.10 491.10 Z" fill="#eff0f9" fill-rule="nonzero" group-id="1,5" id="路径备份-3" node-id="12" stroke="none" target-height="70.19998" target-width="415.2" target-x="542.5" target-y="491.1"></path></g><path d="M 771.50 58.50 L 776.90 58.80 L 782.00 59.70 L 786.80 61.10 L 791.50 63.00 L 795.60 65.40 L 799.40 68.20 L 802.80 71.40 L 805.60 74.90 L 807.90 78.70 L 809.20 81.70 L 810.80 88.10 L 811.00 91.50 L 810.50 96.50 L 885.00 99.10 L 889.50 99.60 L 893.70 100.60 L 897.60 102.10 L 901.30 104.10 L 904.60 106.60 L 907.60 109.40 L 910.30 112.60 L 912.50 116.10 L 914.20 120.00 L 915.50 124.00 L 916.20 128.20 L 916.30 133.70 L 915.90 138.10 L 914.90 142.30 L 913.30 146.20 L 911.30 149.90 L 908.90 153.30 L 906.00 156.30 L 902.80 158.90 L 899.30 161.10 L 895.50 162.90 L 891.40 164.10 L 887.20 164.90 L 882.70 165.00 L 660.50 157.10 L 656.00 156.60 L 651.90 155.60 L 647.90 154.10 L 644.20 152.10 L 640.90 149.60 L 637.90 146.80 L 635.20 143.60 L 633.00 140.10 L 631.30 136.20 L 630.00 132.20 L 629.30 128.00 L 629.20 122.60 L 629.70 118.10 L 630.70 113.90 L 632.20 110.00 L 634.20 106.30 L 636.60 102.90 L 639.50 99.90 L 642.70 97.30 L 646.20 95.10 L 650.10 93.30 L 654.10 92.10 L 658.30 91.40 L 662.80 91.20 L 732.00 93.70 L 732.20 88.10 L 732.80 84.80 L 735.10 78.70 L 737.30 74.90 L 740.20 71.40 L 743.50 68.20 L 747.30 65.40 L 751.50 63.00 L 756.10 61.10 L 760.90 59.70 L 766.00 58.80 L 771.50 58.50 Z" fill="#3681fd" fill-rule="evenodd" group-id="1" id="形状结合" node-id="13" stroke="none" target-height="106.5" target-width="287.09998" target-x="629.2" target-y="58.5"></path><g node-id="28"><path d="M 964.90 826.60 L 432.00 795.80 L 424.90 795.10 L 418.10 793.90 L 411.50 792.20 L 405.20 790.00 L 399.10 787.30 L 393.20 784.10 L 387.70 780.60 L 382.40 776.60 L 377.50 772.20 L 372.90 767.50 L 368.70 762.50 L 364.90 757.10 L 361.50 751.50 L 358.60 745.60 L 356.10 739.50 L 354.00 733.00 L 352.50 726.50 L 351.50 719.80 L 351.10 712.90 L 351.10 705.80 L 351.70 699.70 L 353.20 689.90 L 355.00 681.30 L 357.20 673.80 L 359.60 667.30 L 362.20 661.60 L 365.10 656.70 L 368.10 652.50 L 371.40 649.00 L 374.80 646.00 L 378.40 643.50 L 382.30 641.50 L 386.40 640.00 L 390.80 639.00 L 395.60 638.50 L 400.80 638.50 L 933.70 669.40 L 928.60 669.40 L 923.80 669.90 L 919.40 670.90 L 915.20 672.40 L 911.40 674.30 L 907.70 676.80 L 904.30 679.80 L 901.10 683.40 L 898.00 687.60 L 895.20 692.50 L 892.50 698.10 L 890.10 704.70 L 888.00 712.20 L 886.10 720.80 L 884.60 730.50 L 884.00 737.60 L 884.00 744.50 L 884.50 751.30 L 885.60 757.90 L 887.20 764.40 L 889.20 770.70 L 891.70 776.80 L 894.70 782.70 L 898.10 788.30 L 901.90 793.60 L 906.10 798.70 L 910.70 803.40 L 915.70 807.70 L 921.00 811.70 L 926.60 815.20 L 932.50 818.40 L 938.70 821.00 L 945.10 823.20 L 951.80 824.90 L 958.80 826.10 L 964.90 826.60 Z" fill="#ffffff" fill-rule="nonzero" group-id="1,6" id="路径备份" node-id="14" stroke="#555555" stroke-linecap="butt" stroke-width="7.3142858" target-height="188.09998" target-width="613.80005" target-x="351.1" target-y="638.5"></path></g><g node-id="29"><path d="M 1087.80 929.20 L 511.00 898.40 L 503.90 897.70 L 497.10 896.50 L 490.60 894.80 L 484.20 892.60 L 478.10 889.80 L 472.20 886.70 L 466.70 883.20 L 461.40 879.20 L 456.50 874.80 L 451.90 870.10 L 447.80 865.10 L 443.90 859.70 L 440.50 854.10 L 437.60 848.20 L 435.10 842.00 L 433.10 835.60 L 431.50 829.10 L 430.50 822.40 L 430.10 815.50 L 430.10 808.40 L 430.70 802.20 L 432.20 792.50 L 434.00 783.90 L 436.20 776.40 L 438.60 769.90 L 441.20 764.20 L 444.10 759.30 L 447.10 755.10 L 450.40 751.50 L 453.80 748.50 L 457.40 746.10 L 461.30 744.10 L 465.40 742.60 L 469.90 741.60 L 474.60 741.10 L 479.80 741.10 L 1056.60 771.90 L 1051.50 771.90 L 1046.70 772.40 L 1042.30 773.50 L 1038.20 774.90 L 1034.30 776.90 L 1030.60 779.40 L 1027.20 782.40 L 1024.00 785.90 L 1020.90 790.10 L 1018.10 795.00 L 1015.40 800.70 L 1013.00 807.20 L 1010.90 814.80 L 1009.00 823.30 L 1007.50 833.10 L 1006.90 840.20 L 1006.90 847.10 L 1007.40 853.80 L 1008.50 860.40 L 1010.10 867.00 L 1012.10 873.30 L 1014.60 879.40 L 1017.60 885.30 L 1021.00 890.90 L 1024.80 896.20 L 1029.00 901.20 L 1033.60 905.90 L 1038.60 910.30 L 1043.90 914.20 L 1049.50 917.80 L 1055.40 920.90 L 1061.60 923.60 L 1068.00 925.80 L 1074.70 927.40 L 1081.70 928.60 L 1087.80 929.20 Z" fill="#3681fd" fill-rule="nonzero" group-id="1,7" id="路径" node-id="15" stroke="#555555" stroke-linecap="butt" stroke-width="7.3142858" target-height="188.10004" target-width="657.7001" target-x="430.1" target-y="741.1"></path></g><path d="M 1173.90 602.20 L 1173.70 608.20 L 1172.20 619.80 L 1170.90 625.40 L 1167.30 636.50 L 1162.20 646.90 L 1159.20 651.90 L 1152.20 661.20 L 1148.20 665.50 L 1144.00 669.60 L 1134.90 676.70 L 1130.00 679.80 L 1119.70 684.90 L 1108.90 688.70 L 1103.40 690.00 L 1092.00 691.50 L 1086.20 691.70 L 1080.30 691.50 L 1069.00 690.00 L 1063.40 688.70 L 1052.60 684.90 L 1042.30 679.80 L 1037.50 676.70 L 1028.40 669.60 L 1024.10 665.50 L 1016.50 656.60 L 1013.10 651.90 L 1007.40 641.80 L 1003.10 631.00 L 1001.40 625.40 L 999.10 614.00 L 998.60 608.20 L 998.40 602.20 L 999.10 590.40 L 1000.10 584.70 L 1003.10 573.40 L 1007.40 562.70 L 1013.10 552.50 L 1020.10 543.20 L 1024.10 538.90 L 1028.40 534.80 L 1037.50 527.70 L 1042.30 524.60 L 1052.60 519.50 L 1063.40 515.70 L 1069.00 514.40 L 1080.30 512.90 L 1086.20 512.70 L 1092.00 512.90 L 1103.40 514.40 L 1108.90 515.70 L 1119.70 519.50 L 1130.00 524.60 L 1134.90 527.70 L 1144.00 534.80 L 1148.20 538.90 L 1152.20 543.20 L 1159.20 552.50 L 1162.20 557.50 L 1167.30 567.90 L 1170.90 579.00 L 1172.20 584.70 L 1173.70 596.30 L 1173.90 602.20 Z" fill="#ffffff" fill-rule="evenodd" group-id="1" id="椭圆形" node-id="16" stroke="none" target-height="179" target-width="175.5" target-x="998.4" target-y="512.7"></path><g node-id="30"><path d="M 1186.70 677.40 L 1203.60 695.20 L 1205.60 698.10 L 1207.20 701.10 L 1208.30 704.20 L 1209.10 707.40 L 1209.40 710.60 L 1209.30 713.70 L 1208.70 716.90 L 1207.80 719.90 L 1206.40 722.80 L 1204.60 725.60 L 1202.30 728.30 L 1199.70 730.70 L 1196.90 732.50 L 1194.10 734.00 L 1191.10 734.90 L 1188.00 735.50 L 1184.90 735.60 L 1181.80 735.30 L 1178.60 734.50 L 1175.50 733.40 L 1172.60 731.80 L 1169.70 729.70 L 1166.80 727.10 L 1143.20 702.70 L 1141.50 701.40 L 1140.20 700.90 L 1138.80 701.00 L 1130.40 705.20 L 1123.90 708.10 L 1117.50 710.50 L 1111.10 712.40 L 1104.70 713.80 L 1098.10 714.90 L 1091.60 715.60 L 1085.10 715.80 L 1078.70 715.60 L 1072.40 715.00 L 1064.50 713.70 L 1056.80 711.90 L 1049.30 709.40 L 1042.00 706.40 L 1034.90 702.80 L 1028.20 698.70 L 1021.70 694.10 L 1015.50 688.90 L 1009.80 683.20 L 1004.50 677.10 L 999.50 670.50 L 995.00 663.40 L 991.80 657.50 L 989.00 651.30 L 986.50 644.80 L 984.30 638.00 L 982.50 630.90 L 981.20 623.60 L 980.40 616.40 L 980.00 609.30 L 980.20 602.20 L 980.90 595.10 L 982.00 588.20 L 983.50 581.40 L 985.50 574.70 L 988.00 568.20 L 990.80 561.90 L 994.00 555.80 L 997.60 549.80 L 1001.60 544.10 L 1005.90 538.80 L 1010.50 533.60 L 1015.50 528.80 L 1020.80 524.30 L 1026.40 520.10 L 1032.30 516.30 L 1038.50 512.90 L 1044.90 509.90 L 1051.60 507.30 L 1058.50 505.20 L 1065.70 503.50 L 1073.20 502.30 L 1080.60 501.70 L 1087.90 501.60 L 1095.10 502.00 L 1102.30 503.00 L 1109.30 504.50 L 1116.20 506.40 L 1122.90 508.80 L 1129.40 511.60 L 1135.70 514.90 L 1141.70 518.60 L 1147.50 522.70 L 1153.10 527.20 L 1158.30 532.00 L 1163.20 537.20 L 1167.80 542.70 L 1172.00 548.50 L 1175.80 554.60 L 1179.20 561.10 L 1182.20 567.80 L 1184.70 574.70 L 1186.80 581.80 L 1188.40 589.20 L 1189.50 596.90 L 1190.00 604.70 L 1190.00 612.30 L 1189.60 619.70 L 1188.60 627.00 L 1187.10 634.20 L 1185.10 641.20 L 1182.70 648.20 L 1179.70 655.10 L 1175.10 664.00 L 1174.70 665.70 L 1186.70 677.40 Z M 1084.90 682.90 L 1091.10 682.60 L 1096.90 681.80 L 1102.60 680.60 L 1108.20 679.00 L 1113.60 676.90 L 1118.70 674.40 L 1123.60 671.60 L 1128.20 668.40 L 1132.60 664.80 L 1136.70 660.90 L 1140.50 656.80 L 1144.00 652.30 L 1147.10 647.50 L 1149.90 642.60 L 1152.30 637.40 L 1154.30 631.90 L 1155.80 626.30 L 1157.00 620.50 L 1157.60 614.60 L 1157.90 608.40 L 1157.60 602.20 L 1156.80 596.30 L 1155.70 590.50 L 1154.00 584.90 L 1151.90 579.50 L 1149.50 574.30 L 1146.70 569.30 L 1143.50 564.60 L 1140.00 560.10 L 1136.10 556.00 L 1132.00 552.10 L 1127.60 548.60 L 1122.90 545.40 L 1118.00 542.60 L 1112.80 540.20 L 1107.40 538.20 L 1101.90 536.60 L 1096.20 535.40 L 1090.40 534.80 L 1084.30 534.60 L 1078.30 534.90 L 1072.50 535.60 L 1066.90 536.90 L 1061.50 538.60 L 1056.20 540.70 L 1051.10 543.20 L 1046.30 546.00 L 1041.70 549.30 L 1037.40 552.90 L 1033.40 556.80 L 1029.60 561.00 L 1026.20 565.60 L 1023.10 570.40 L 1020.40 575.40 L 1018.00 580.60 L 1016.10 586.20 L 1014.50 591.80 L 1013.40 597.60 L 1012.70 603.60 L 1012.50 609.80 L 1012.80 615.80 L 1013.50 621.60 L 1014.70 627.20 L 1016.40 632.70 L 1018.40 638.10 L 1020.90 643.20 L 1023.70 648.20 L 1026.90 652.80 L 1030.40 657.30 L 1034.20 661.40 L 1038.30 665.30 L 1042.60 668.80 L 1047.30 672.00 L 1052.10 674.80 L 1057.20 677.20 L 1062.40 679.20 L 1067.80 680.80 L 1073.40 682.00 L 1079.10 682.70 L 1084.90 682.90 Z" fill="#3681fd" fill-rule="nonzero" group-id="1,8" id="形状" node-id="18" stroke="none" target-height="233.99997" target-width="229.40002" target-x="980" target-y="501.6"></path><path d="M 1026.70 607.80 L 1027.00 602.50 L 1027.60 597.50 L 1028.60 592.80 L 1030.00 588.20 L 1031.80 583.70 L 1036.20 575.50 L 1038.90 571.70 L 1042.80 567.10 L 1047.10 562.90 L 1051.80 559.20 L 1056.80 556.10 L 1061.90 553.50 L 1067.30 551.50 L 1071.50 550.40 L 1075.60 549.60 L 1084.00 549.20 L 1084.20 565.40 L 1074.60 567.00 L 1070.40 568.40 L 1066.60 570.00 L 1059.60 574.20 L 1056.60 576.70 L 1053.90 579.50 L 1050.80 583.50 L 1048.10 587.80 L 1046.00 592.50 L 1044.40 597.40 L 1043.30 602.50 L 1042.80 607.80 L 1026.70 607.80 Z" fill="#3681fd" fill-rule="nonzero" group-id="1,8" id="路径" node-id="19" stroke="none" target-height="58.599976" target-width="57.5" target-x="1026.7" target-y="549.2"></path></g></g></svg>