<?xml version="1.0" encoding="utf-8"?>
<svg version="1.1" xmlns:xlink="http://www.w3.org/1999/xlink" width="330px" height="298px" xmlns="http://www.w3.org/2000/svg">
  <defs>
    <linearGradient gradientUnits="userSpaceOnUse" x1="268.94989632154653" y1="270.8400422322755" x2="61.379994160352844" y2="270.8400422322743" id="LinearGradient257">
      <stop id="Stop258" stop-color="#cdd6ff" offset="0" />
      <stop id="Stop259" stop-color="#ffffff" offset="0.51" />
      <stop id="Stop260" stop-color="#ffe29f" offset="1" />
    </linearGradient>
    <mask fill="white" id="clip261">
      <path d="M 242.7001055352948 250.06964475679152  C 232.58662394006942 259.25107470559317  228.29046626183575 274.1971807028402  235.12498931885162 286.0165961077317  C 241.9595123758675 297.8360115126231  257.2447406961649 302.01932191822215  267.9281540645145 293.50565603040656  C 289.6262203790023 276.21435783666345  306.7141695328519 253.64411025547636  317.4400681226074 227.78956808197623  C 331.33994148279675 194.28422754223823  333.778551611309 157.13570518478315  324.3776876266248 122.1055186173748  C 314.97682364194054 87.07533204996645  294.26186929899484 56.121192690718736  265.4455805199527 34.043903714149806  C 236.62929174091067 11.966614737580883  201.32211867467942 0  164.9999847412166 0  C 128.67785080775374 0  93.37067201947872 11.966631877144426  64.5543889624804 34.0439265669012  C 35.7381059054821 56.121221256657975  15.023148224677541 87.07536252030162  5.622291869384999 122.10554908770999  C -3.778564485907543 157.13573565511834  -1.3399452974926396 194.2842618213653  12.559935692088478 227.78959855231142  C 23.285839050213788 253.6441369170197  40.37380060182492 276.21436354985127  62.07186882366062 293.50565603040656  C 72.75528409935818 302.01932001382613  88.04051337332953 297.83601341701905  94.87503356932352 286.0165961077317  C 101.70955376531751 274.19717879844427  97.41337701360455 259.2510889885628  87.29989446470523 250.06965999195913  C 74.78349494273054 238.70676638399127  64.84268269433865 224.6664729891726  58.29195536593152 208.876097801187  C 48.56203857785734 185.42236094688715  46.855003667772266 159.418394154031  53.43560340257924 134.8972624142076  C 60.0162031373862 110.37613067438419  74.51666936546765 88.70822779060214  94.68806769610126 73.25412131733279  C 114.85946602673486 57.80001484406346  139.57449136926218 49.423373920522394  164.9999847412166 49.4233711969852  C 190.42547811317098 49.42336847344777  215.14050727039412 57.800004369885734  235.31190941572362 73.25410608216521  C 255.48331156105309 88.70820779444468  269.9837763586236 110.37610210844495  276.56438133863736 134.8972319438724  C 283.1449863186511 159.4183617792999  281.43797191255624 185.422328572156  271.7080598928519 208.8760673308518  C 265.1573344717927 224.66644727982728  255.21650601094342 238.70674734003177  242.7001055352948 250.06964475679152  Z " fill-rule="evenodd" />
    </mask>
  </defs>
  <g transform="matrix(1 0 0 1 -50 -314 )">
    <path d="M 242.7001055352948 250.06964475679152  C 232.58662394006942 259.25107470559317  228.29046626183575 274.1971807028402  235.12498931885162 286.0165961077317  C 241.9595123758675 297.8360115126231  257.2447406961649 302.01932191822215  267.9281540645145 293.50565603040656  C 289.6262203790023 276.21435783666345  306.7141695328519 253.64411025547636  317.4400681226074 227.78956808197623  C 331.33994148279675 194.28422754223823  333.778551611309 157.13570518478315  324.3776876266248 122.1055186173748  C 314.97682364194054 87.07533204996645  294.26186929899484 56.121192690718736  265.4455805199527 34.043903714149806  C 236.62929174091067 11.966614737580883  201.32211867467942 0  164.9999847412166 0  C 128.67785080775374 0  93.37067201947872 11.966631877144426  64.5543889624804 34.0439265669012  C 35.7381059054821 56.121221256657975  15.023148224677541 87.07536252030162  5.622291869384999 122.10554908770999  C -3.778564485907543 157.13573565511834  -1.3399452974926396 194.2842618213653  12.559935692088478 227.78959855231142  C 23.285839050213788 253.6441369170197  40.37380060182492 276.21436354985127  62.07186882366062 293.50565603040656  C 72.75528409935818 302.01932001382613  88.04051337332953 297.83601341701905  94.87503356932352 286.0165961077317  C 101.70955376531751 274.19717879844427  97.41337701360455 259.2510889885628  87.29989446470523 250.06965999195913  C 74.78349494273054 238.70676638399127  64.84268269433865 224.6664729891726  58.29195536593152 208.876097801187  C 48.56203857785734 185.42236094688715  46.855003667772266 159.418394154031  53.43560340257924 134.8972624142076  C 60.0162031373862 110.37613067438419  74.51666936546765 88.70822779060214  94.68806769610126 73.25412131733279  C 114.85946602673486 57.80001484406346  139.57449136926218 49.423373920522394  164.9999847412166 49.4233711969852  C 190.42547811317098 49.42336847344777  215.14050727039412 57.800004369885734  235.31190941572362 73.25410608216521  C 255.48331156105309 88.70820779444468  269.9837763586236 110.37610210844495  276.56438133863736 134.8972319438724  C 283.1449863186511 159.4183617792999  281.43797191255624 185.422328572156  271.7080598928519 208.8760673308518  C 265.1573344717927 224.66644727982728  255.21650601094342 238.70674734003177  242.7001055352948 250.06964475679152  Z " fill-rule="nonzero" fill="url(#LinearGradient257)" stroke="none" transform="matrix(1 0 0 1 50 314 )" />
    <path d="M 242.7001055352948 250.06964475679152  C 232.58662394006942 259.25107470559317  228.29046626183575 274.1971807028402  235.12498931885162 286.0165961077317  C 241.9595123758675 297.8360115126231  257.2447406961649 302.01932191822215  267.9281540645145 293.50565603040656  C 289.6262203790023 276.21435783666345  306.7141695328519 253.64411025547636  317.4400681226074 227.78956808197623  C 331.33994148279675 194.28422754223823  333.778551611309 157.13570518478315  324.3776876266248 122.1055186173748  C 314.97682364194054 87.07533204996645  294.26186929899484 56.121192690718736  265.4455805199527 34.043903714149806  C 236.62929174091067 11.966614737580883  201.32211867467942 0  164.9999847412166 0  C 128.67785080775374 0  93.37067201947872 11.966631877144426  64.5543889624804 34.0439265669012  C 35.7381059054821 56.121221256657975  15.023148224677541 87.07536252030162  5.622291869384999 122.10554908770999  C -3.778564485907543 157.13573565511834  -1.3399452974926396 194.2842618213653  12.559935692088478 227.78959855231142  C 23.285839050213788 253.6441369170197  40.37380060182492 276.21436354985127  62.07186882366062 293.50565603040656  C 72.75528409935818 302.01932001382613  88.04051337332953 297.83601341701905  94.87503356932352 286.0165961077317  C 101.70955376531751 274.19717879844427  97.41337701360455 259.2510889885628  87.29989446470523 250.06965999195913  C 74.78349494273054 238.70676638399127  64.84268269433865 224.6664729891726  58.29195536593152 208.876097801187  C 48.56203857785734 185.42236094688715  46.855003667772266 159.418394154031  53.43560340257924 134.8972624142076  C 60.0162031373862 110.37613067438419  74.51666936546765 88.70822779060214  94.68806769610126 73.25412131733279  C 114.85946602673486 57.80001484406346  139.57449136926218 49.423373920522394  164.9999847412166 49.4233711969852  C 190.42547811317098 49.42336847344777  215.14050727039412 57.800004369885734  235.31190941572362 73.25410608216521  C 255.48331156105309 88.70820779444468  269.9837763586236 110.37610210844495  276.56438133863736 134.8972319438724  C 283.1449863186511 159.4183617792999  281.43797191255624 185.422328572156  271.7080598928519 208.8760673308518  C 265.1573344717927 224.66644727982728  255.21650601094342 238.70674734003177  242.7001055352948 250.06964475679152  Z " stroke-width="2" stroke="#eeeeee" fill="none" transform="matrix(1 0 0 1 50 314 )" mask="url(#clip261)" />
  </g>
</svg>