<?xml version="1.0" encoding="utf-8"?>
<svg version="1.1" xmlns:xlink="http://www.w3.org/1999/xlink" width="26px" height="26px" xmlns="http://www.w3.org/2000/svg">
  <g transform="matrix(1 0 0 1 -25 -721 )">
    <path d="M 12.387174288431803 4.079492378234863  C 12.224642764528593 3.9169608543316525  12.133333333333333 3.696520966291428  12.133333333333333 3.466666666666667  C 12.133333333333333 3.466666666666667  12.133333333333333 0.8666666666666667  12.133333333333333 0.8666666666666667  C 12.133333333333333 0.6368123670419057  12.224642764528593 0.4163722723722458  12.387174288431803 0.2538407484690348  C 12.549705812335015 0.09130922456582387  12.77014570037524 0  13 0  C 13.22985429962476 0  13.450295014182725 0.09130922456582387  13.612826538085937 0.2538407484690348  C 13.77535806198915 0.4163722723722458  13.866666666666667 0.6368123670419057  13.866666666666667 0.8666666666666667  C 13.866666666666667 0.8666666666666667  13.866666666666667 3.466666666666667  13.866666666666667 3.466666666666667  C 13.866666666666667 3.696520966291428  13.77535806198915 3.9169608543316525  13.612826538085937 4.079492378234863  C 13.450295014182725 4.242023902138074  13.22985429962476 4.333333333333333  13 4.333333333333333  C 12.77014570037524 4.333333333333333  12.549705812335015 4.242023902138074  12.387174288431803 4.079492378234863  Z M 17.900390625 8.099610201517741  C 19.200207964579263 9.399427541097005  19.931326073454695 11.161781771977742  19.933333333333334 13  C 19.933333333333337 14.371283745765686  19.526699880758922 15.711772060394287  18.764855448404948 16.851952870686848  C 18.003011016050973 17.99213368097941  16.920173438390098 18.88079780737559  15.653272374471028 19.405565388997395  C 14.386371310551963 19.9303329706192  12.992308942476908 20.067636086543402  11.647373962402343 19.800111897786458  C 10.302438982327779 19.532587709029517  9.06703671614329 18.8722514073054  8.097392654418945 17.902607345581057  C 7.1277485926946 16.93296328385671  6.467413117488225 15.697561017672221  6.199888928731283 14.352626037597656  C 5.93236473997434 13.007691057523093  6.0696678558985395 11.61362951596578  6.594435437520344 10.346728452046712  C 7.119203019142151 9.079827388127645  8.007865492502848 7.996988157431284  9.148046302795409 7.235143725077311  C 10.288227113087972 6.473299292723338  11.628716254234314 6.066666666666668  13 6.066666666666666  C 14.838218228022258 6.068673926545308  16.600573285420737 6.799792861938476  17.900390625 8.099610201517741  Z M 16.675372314453124 16.675372314453124  C 17.650250816345217 15.700493812561035  18.198566108352193 14.378685625394187  18.2 13  C 18.200000000000003 11.971537113189697  17.89502492348353 10.966170128186544  17.32364158630371 10.111034520467122  C 16.75225824912389 9.255898912747702  15.940129613876342 8.589402470986048  14.989953867594402 8.195826784769695  C 14.039778121312459 7.802251098553341  12.99423173268636 7.699273755153021  11.985530471801757 7.899916903177898  C 10.976829210917154 8.100560051202775  10.050277976195018 8.59581183195114  9.323044904073079 9.323044904073079  C 8.59581183195114 10.050277976195018  8.100560051202775 10.976829210917154  7.899916903177898 11.985530471801757  C 7.699273755153021 12.99423173268636  7.802251098553341 14.039778121312459  8.195826784769695 14.989953867594402  C 8.589402470986048 15.940129613876342  9.255898912747702 16.75225824912389  10.111034520467122 17.32364158630371  C 10.966170128186544 17.89502492348353  11.971537113189697 18.199999999999996  13 18.2  C 14.378685625394187 18.198566108352193  15.700493812561035 17.650250816345217  16.675372314453124 16.675372314453124  Z M 3.7201666831970215 4.9464999834696455  C 3.7201666831970215 4.9464999834696455  5.453500016530355 6.6798337300618496  5.453500016530355 6.6798337300618496  C 5.616121927897136 6.84245562851429  5.8366845667362215 6.933815196603271  6.066666666666666 6.93381519317627  C 6.296648766597112 6.933815189749269  6.5172109921773265 6.842454814910889  6.679832903544109 6.679832903544109  C 6.842454814910889 6.5172109921773265  6.933815189749269 6.296648766597112  6.93381519317627 6.066666666666666  C 6.93381519660327 5.8366845667362215  6.84245562851429 5.616121927897136  6.6798337300618496 5.453500016530355  C 6.6798337300618496 5.453500016530355  4.9464999834696455 3.7201666831970215  4.9464999834696455 3.7201666831970215  C 4.783878072102865 3.557544771830241  4.563315433263779 3.46618480511023  4.333333333333333 3.4661848068237306  C 4.103351233402888 3.4661848085372307  3.882788594563802 3.557544771830241  3.7201666831970215 3.7201666831970215  C 3.557544771830241 3.882788594563802  3.4661848085372307 4.103351233402888  3.4661848068237306 4.333333333333333  C 3.46618480511023 4.563315433263779  3.557544771830241 4.783878072102865  3.7201666831970215 4.9464999834696455  Z M 5.734823099772135 19.132192993164065  C 5.629615785678228 19.17577128956715  5.534022209544976 19.23964407692353  5.453500016530355 19.320166269938152  C 5.453500016530355 19.320166269938152  3.7201666831970215 21.053499603271487  3.7201666831970215 21.053499603271487  C 3.5575447847445805 21.216121514638264  3.4661848022902344 21.436684566736222  3.4661848068237306 21.666666666666668  C 3.4661848113572256 21.896648766597114  3.557544771830241 22.11721181869507  3.7201666831970215 22.27983373006185  C 3.882788594563802 22.44245564142863  4.103351233402888 22.533816015160518  4.333333333333333 22.53381601969401  C 4.563315433263779 22.53381602422751  4.783878072102865 22.442455628514292  4.9464999834696455 22.27983373006185  C 4.9464999834696455 22.27983373006185  6.6798337300618496 20.546500396728515  6.6798337300618496 20.546500396728515  C 6.760355923076471 20.46597820371389  6.824229536950588 20.37038421432177  6.867807833353679 20.265176900227864  C 6.911386129756769 20.159969586133958  6.933815193176269 20.047208907206855  6.93381519317627 19.933333333333334  C 6.933815193176269 19.819457759459812  6.911386129756769 19.70669708053271  6.867807833353679 19.601489766438803  C 6.824229536950588 19.496282452344897  6.760355923076471 19.400688462952772  6.6798337300618496 19.320166269938152  C 6.599311537047226 19.23964407692353  6.503717547655105 19.17577128956715  6.398510233561198 19.132192993164065  C 6.2933029194672905 19.088614696760974  6.180542240540187 19.066183980305993  6.066666666666666 19.06618398030599  C 5.952791092793147 19.066183980305993  5.840030413866043 19.088614696760974  5.734823099772135 19.132192993164065  Z M 19.451481755574545 6.787490971883138  C 19.594129780928295 6.8827122986316684  19.761823734641073 6.933468305675584  19.933333333333334 6.933333333333334  C 20.04717920422554 6.933422855712706  20.159928105274837 6.911081022024154  20.265137227376304 6.86758467356364  C 20.370346349477767 6.824088325103125  20.465954447786014 6.7602901890873905  20.546500396728515 6.6798337300618496  C 20.546500396728515 6.6798337300618496  22.27983373006185 4.9464999834696455  22.27983373006185 4.9464999834696455  C 22.442455628514292 4.783878072102865  22.533816024227505 4.563315433263779  22.53381601969401 4.333333333333333  C 22.533816015160518 4.103351233402888  22.44245564142863 3.882788594563802  22.27983373006185 3.7201666831970215  C 22.11721181869507 3.557544771830241  21.896648766597114 3.4661848113572264  21.666666666666668 3.4661848068237306  C 21.436684566736222 3.4661848022902344  21.216121514638264 3.5575447847445805  21.053499603271487 3.7201666831970215  C 21.053499603271487 3.7201666831970215  19.320166269938152 5.453500016530355  19.320166269938152 5.453500016530355  C 19.198823134104412 5.574708120028178  19.116171673188607 5.729194036126137  19.082674662272137 5.897400792439779  C 19.049177651355663 6.0656075487534205  19.066342484454314 6.239971784750621  19.131994628906252 6.398418490091959  C 19.197646773358187 6.556865195433298  19.308833730220794 6.6922696451346075  19.451481755574545 6.787490971883138  Z M 22.27983373006185 21.053499603271487  C 22.27983373006185 21.053499603271487  20.546500396728515 19.320166269938152  20.546500396728515 19.320166269938152  C 20.383878485361734 19.15754435857137  20.16331543326378 19.06618398030599  19.933333333333334 19.06618398030599  C 19.703351233402888 19.06618398030599  19.48278818130493 19.15754435857137  19.320166269938152 19.320166269938152  C 19.15754435857137 19.48278818130493  19.06618398030599 19.703351233402888  19.06618398030599 19.933333333333334  C 19.06618398030599 20.16331543326378  19.15754435857137 20.383878485361734  19.320166269938152 20.546500396728515  C 19.320166269938152 20.546500396728515  21.053499603271487 22.27983373006185  21.053499603271487 22.27983373006185  C 21.134021796286106 22.360355923076472  21.229615785678227 22.424228710432846  21.334823099772134 22.467807006835937  C 21.440030413866044 22.511385303239027  21.552791092793147 22.53381601969401  21.666666666666668 22.53381601969401  C 21.780542240540186 22.53381601969401  21.893302919467292 22.511385303239027  21.9985102335612 22.467807006835937  C 22.103717547655105 22.424228710432846  22.199311537047226 22.360355923076472  22.27983373006185 22.27983373006185  C 22.360355923076472 22.199311537047226  22.424228710432846 22.103717547655105  22.467807006835937 21.9985102335612  C 22.511385303239027 21.893302919467292  22.533816019694004 21.780542240540186  22.53381601969401 21.666666666666668  C 22.533816019694004 21.552791092793147  22.511385303239027 21.440030413866044  22.467807006835937 21.334823099772134  C 22.424228710432846 21.229615785678227  22.360355923076472 21.134021796286106  22.27983373006185 21.053499603271487  Z M 4.079492378234863 13.612826538085937  C 4.242023902138074 13.450295014182725  4.333333333333333 13.22985429962476  4.333333333333333 13  C 4.333333333333333 12.77014570037524  4.242023902138074 12.549705812335015  4.079492378234863 12.387174288431803  C 3.9169608543316525 12.224642764528593  3.696520966291428 12.133333333333333  3.466666666666667 12.133333333333333  C 3.466666666666667 12.133333333333333  0.8666666666666667 12.133333333333333  0.8666666666666667 12.133333333333333  C 0.6368123670419057 12.133333333333333  0.4163722723722458 12.224642764528593  0.2538407484690348 12.387174288431803  C 0.09130922456582387 12.549705812335015  0 12.77014570037524  0 13  C 0 13.22985429962476  0.09130922456582387 13.450295014182725  0.2538407484690348 13.612826538085937  C 0.4163722723722458 13.77535806198915  0.6368123670419057 13.866666666666667  0.8666666666666667 13.866666666666667  C 0.8666666666666667 13.866666666666667  3.466666666666667 13.866666666666667  3.466666666666667 13.866666666666667  C 3.696520966291428 13.866666666666667  3.9169608543316525 13.77535806198915  4.079492378234863 13.612826538085937  Z M 13.612826538085937 21.920506795247395  C 13.450295014182725 21.757975271344183  13.22985429962476 21.666666666666668  13 21.666666666666668  C 12.77014570037524 21.666666666666668  12.549705812335015 21.757975271344183  12.387174288431803 21.920506795247395  C 12.224642764528593 22.083038319150607  12.133333333333333 22.303479033708573  12.133333333333333 22.533333333333335  C 12.133333333333333 22.533333333333335  12.133333333333333 25.133333333333333  12.133333333333333 25.133333333333333  C 12.133333333333333 25.363187632958095  12.224642764528593 25.583628347516058  12.387174288431803 25.74615987141927  C 12.549705812335015 25.90869139532248  12.77014570037524 26  13 26  C 13.22985429962476 26  13.450295014182725 25.90869139532248  13.612826538085937 25.74615987141927  C 13.77535806198915 25.583628347516058  13.866666666666667 25.363187632958095  13.866666666666667 25.133333333333333  C 13.866666666666667 25.133333333333333  13.866666666666667 22.533333333333335  13.866666666666667 22.533333333333335  C 13.866666666666667 22.303479033708573  13.77535806198915 22.083038319150607  13.612826538085937 21.920506795247395  Z M 25.74615987141927 12.387174288431803  C 25.583628347516058 12.224642764528593  25.363187632958095 12.133333333333333  25.133333333333333 12.133333333333333  C 25.133333333333333 12.133333333333333  22.533333333333335 12.133333333333333  22.533333333333335 12.133333333333333  C 22.303479033708573 12.133333333333333  22.083038319150607 12.224642764528593  21.920506795247395 12.387174288431803  C 21.757975271344183 12.549705812335015  21.666666666666668 12.77014570037524  21.666666666666668 13  C 21.666666666666668 13.22985429962476  21.757975271344183 13.450295014182725  21.920506795247395 13.612826538085937  C 22.083038319150607 13.77535806198915  22.303479033708573 13.866666666666667  22.533333333333335 13.866666666666667  C 22.533333333333335 13.866666666666667  25.133333333333333 13.866666666666667  25.133333333333333 13.866666666666667  C 25.363187632958095 13.866666666666667  25.583628347516058 13.77535806198915  25.74615987141927 13.612826538085937  C 25.90869139532248 13.450295014182725  26 13.22985429962476  26 13  C 26 12.77014570037524  25.90869139532248 12.549705812335015  25.74615987141927 12.387174288431803  Z " fill-rule="nonzero" fill="#424242" stroke="none" transform="matrix(1 0 0 1 25 721 )" />
  </g>
</svg>